<svg xmlns="http://www.w3.org/2000/svg" width="24" height="32" viewBox="0 0 24 32"><g transform="translate(-3)"><rect width="24" height="20" rx="3" transform="translate(3 12)" fill="#3a126c"/><path d="M21,14a1,1,0,0,1-1-1V8A6,6,0,1,0,8,8v5a1,1,0,0,1-2,0V8A8,8,0,0,1,22,8v5A1,1,0,0,1,21,14Z" transform="translate(1)" fill="#000"/><path d="M12.667,18.333a2.667,2.667,0,1,1,2.667-2.667A2.667,2.667,0,0,1,12.667,18.333Zm0-3.333a.667.667,0,1,0,.667.667A.667.667,0,0,0,12.667,15Z" transform="translate(2.333 4.333)" fill="#fff"/><path d="M12.25,21.417a1,1,0,0,1-1-1V16.75a1,1,0,0,1,2,0v3.667A1,1,0,0,1,12.25,21.417Z" transform="translate(2.75 5.25)" fill="#fff"/></g></svg>